<svg xmlns="http://www.w3.org/2000/svg" width="410" height="404" viewBox="0 0 410 404" fill="none">
  <defs>
    <linearGradient id="paint0_linear" x1="3.96006" y1="3.60305" x2="202.436" y2="202.079" gradientUnits="userSpaceOnUse">
      <stop stop-color="#41D1FF" />
      <stop offset="1" stop-color="#BD34FE" />
    </linearGradient>
    <linearGradient id="paint1_linear" x1="194.651" y1="12.1979" x2="236.076" y2="176.223" gradientUnits="userSpaceOnUse">
      <stop stop-color="#FFEA83" />
      <stop offset="0.0833333" stop-color="#FFDD35" />
      <stop offset="1" stop-color="#FFA800" />
    </linearGradient>
  </defs>
  <path d="M399.641 59.5246L215.643 388.545C211.844 395.338 202.084 395.593 197.926 389.037L10.5817 59.8824C6.08757 52.6323 12.951 43.6449 21.0281 45.4839L204.439 87.8372C205.262 88.0261 206.113 88.0074 206.927 87.7827L389.196 36.6584C397.218 34.3947 404.043 42.7407 400.369 50.2979Z" fill="url(#paint0_linear)" />
  <path d="M292.965 1.5744L156.801 34.8342C154.563 35.389 152.906 37.2431 152.771 39.5496L144.395 183.691C144.198 187.229 147.222 190.001 150.678 189.214L188.42 180.617C191.884 179.828 194.92 182.612 194.71 186.155L192.211 228.518C192 232.078 195.07 234.862 198.544 234.049L216.947 229.762C220.42 228.95 223.491 231.732 223.279 235.292L219.016 308.302C218.744 312.953 224.946 315.184 227.36 311.14L229.5 307.5L323.805 91.3979C325.426 87.8847 322.212 84.0033 318.35 84.9177L279.014 94.1818C275.136 95.0999 271.9 91.1857 273.573 87.6538L301.508 27.3945C303.18 23.8626 299.951 19.945 296.074 20.8746Z" fill="url(#paint1_linear)" />
</svg>
